<svg version="1.1" viewBox="0.0 0.0 960.0 540.0" fill="none" stroke="none" stroke-linecap="square" stroke-miterlimit="10" xmlns:xlink="http://www.w3.org/1999/xlink" xmlns="http://www.w3.org/2000/svg"><clipPath id="g8bdc34c733_0_0.0"><path d="m0 0l960.0 0l0 540.0l-960.0 0l0 -540.0z" clip-rule="nonzero"/></clipPath><g clip-path="url(#g8bdc34c733_0_0.0)"><path fill="#ffffff" d="m0 0l960.0 0l0 540.0l-960.0 0z" fill-rule="evenodd"/><path fill="#e58156" d="m170.49869 171.36745l0 0c0 -28.170868 23.42221 -51.007866 52.314957 -51.007866l0 0c13.874802 0 27.181305 5.374031 36.992264 14.9398575c9.810974 9.565826 15.322693 22.539886 15.322693 36.06801l0 0c0 28.170883 -23.422195 51.00789 -52.314957 51.00789l0 0c-28.892746 0 -52.314957 -22.837006 -52.314957 -51.00789z" fill-rule="evenodd"/><path stroke="#595959" stroke-width="3.0" stroke-linejoin="round" stroke-linecap="butt" d="m170.49869 171.36745l0 0c0 -28.170868 23.42221 -51.007866 52.314957 -51.007866l0 0c13.874802 0 27.181305 5.374031 36.992264 14.9398575c9.810974 9.565826 15.322693 22.539886 15.322693 36.06801l0 0c0 28.170883 -23.422195 51.00789 -52.314957 51.00789l0 0c-28.892746 0 -52.314957 -22.837006 -52.314957 -51.00789z" fill-rule="evenodd"/><path fill="#da4859" d="m170.49869 349.36746l0 0c0 -28.170868 23.42221 -51.007874 52.314957 -51.007874l0 0c13.874802 0 27.181305 5.3740234 36.992264 14.93985c9.810974 9.565826 15.322693 22.539886 15.322693 36.068024l0 0c0 28.170868 -23.422195 51.007874 -52.314957 51.007874l0 0c-28.892746 0 -52.314957 -22.837006 -52.314957 -51.007874z" fill-rule="evenodd"/><path stroke="#595959" stroke-width="3.0" stroke-linejoin="round" stroke-linecap="butt" d="m170.49869 349.36746l0 0c0 -28.170868 23.42221 -51.007874 52.314957 -51.007874l0 0c13.874802 0 27.181305 5.3740234 36.992264 14.93985c9.810974 9.565826 15.322693 22.539886 15.322693 36.068024l0 0c0 28.170868 -23.422195 51.007874 -52.314957 51.007874l0 0c-28.892746 0 -52.314957 -22.837006 -52.314957 -51.007874z" fill-rule="evenodd"/><path fill="#000000" d="m201.01677 349.99496q0 -11.40625 6.125 -17.859375q6.125 -6.453125 15.8125 -6.453125q6.34375 0 11.4375 3.03125q5.09375 3.03125 7.765625 8.453125q2.671875 5.421875 2.671875 12.296875q0 6.96875 -2.8125 12.46875q-2.8125 5.5 -7.96875 8.328125q-5.15625 2.828125 -11.125 2.828125q-6.46875 0 -11.5625 -3.125q-5.09375 -3.125 -7.71875 -8.53125q-2.625 -5.40625 -2.625 -11.4375zm6.25 0.09375q0 8.28125 4.453125 13.046875q4.453125 4.765625 11.171875 4.765625q6.84375 0 11.265625 -4.8125q4.421875 -4.8125 4.421875 -13.65625q0 -5.59375 -1.890625 -9.765625q-1.890625 -4.171875 -5.53125 -6.46875q-3.640625 -2.296875 -8.171875 -2.296875q-6.4375 0 -11.078125 4.421875q-4.640625 4.421875 -4.640625 14.765625z" fill-rule="nonzero"/><path fill="#da4859" d="m427.68503 69.35171l0 0c0 -28.170872 23.42221 -51.007874 52.314972 -51.007874l0 0c13.874786 0 27.181305 5.374029 36.99225 14.939859c9.810974 9.565834 15.322693 22.539886 15.322693 36.068016l0 0c0 28.170868 -23.42218 51.007874 -52.31494 51.007874l0 0c-28.892761 0 -52.314972 -22.837006 -52.314972 -51.007874z" fill-rule="evenodd"/><path stroke="#595959" stroke-width="3.0" stroke-linejoin="round" stroke-linecap="butt" d="m427.68503 69.35171l0 0c0 -28.170872 23.42221 -51.007874 52.314972 -51.007874l0 0c13.874786 0 27.181305 5.374029 36.99225 14.939859c9.810974 9.565834 15.322693 22.539886 15.322693 36.068016l0 0c0 28.170868 -23.42218 51.007874 -52.31494 51.007874l0 0c-28.892761 0 -52.314972 -22.837006 -52.314972 -51.007874z" fill-rule="evenodd"/><path fill="#da4859" d="m427.68503 273.3832l0 0c0 -28.170883 23.42221 -51.007874 52.314972 -51.007874l0 0c13.874786 0 27.181305 5.3740234 36.99225 14.93985c9.810974 9.565842 15.322693 22.539886 15.322693 36.068024l0 0c0 28.170868 -23.42218 51.007874 -52.31494 51.007874l0 0c-28.892761 0 -52.314972 -22.837006 -52.314972 -51.007874z" fill-rule="evenodd"/><path stroke="#595959" stroke-width="3.0" stroke-linejoin="round" stroke-linecap="butt" d="m427.68503 273.3832l0 0c0 -28.170883 23.42221 -51.007874 52.314972 -51.007874l0 0c13.874786 0 27.181305 5.3740234 36.99225 14.93985c9.810974 9.565842 15.322693 22.539886 15.322693 36.068024l0 0c0 28.170868 -23.42218 51.007874 -52.31494 51.007874l0 0c-28.892761 0 -52.314972 -22.837006 -52.314972 -51.007874z" fill-rule="evenodd"/><path fill="#000000" d="m461.76562 296.3232l0 -45.812515l6.21875 0l24.0625 35.968765l0 -35.968765l5.8125 0l0 45.812515l-6.21875 0l-24.0625 -36.0l0 36.0l-5.8125 0z" fill-rule="nonzero"/><path fill="#ffffff" d="m427.68503 469.3832l0 0c0 -28.170868 23.42221 -51.007874 52.314972 -51.007874l0 0c13.874786 0 27.181305 5.3740234 36.99225 14.93985c9.810974 9.565826 15.322693 22.539886 15.322693 36.068024l0 0c0 28.170868 -23.42218 51.007843 -52.31494 51.007843l0 0c-28.892761 0 -52.314972 -22.836975 -52.314972 -51.007843z" fill-rule="evenodd"/><path stroke="#595959" stroke-width="3.0" stroke-linejoin="round" stroke-linecap="butt" d="m427.68503 469.3832l0 0c0 -28.170868 23.42221 -51.007874 52.314972 -51.007874l0 0c13.874786 0 27.181305 5.3740234 36.99225 14.93985c9.810974 9.565826 15.322693 22.539886 15.322693 36.068024l0 0c0 28.170868 -23.42218 51.007843 -52.31494 51.007843l0 0c-28.892761 0 -52.314972 -22.836975 -52.314972 -51.007843z" fill-rule="evenodd"/><path fill="#da4859" d="m660.8714 165.99213l0 0c0 -28.170868 23.42218 -51.007874 52.31494 -51.007874l0 0c13.874817 0 27.181335 5.374031 36.99225 14.939865c9.810974 9.565826 15.322754 22.539871 15.322754 36.06801l0 0c0 28.170868 -23.422241 51.007874 -52.315002 51.007874l0 0c-28.892761 0 -52.31494 -22.837006 -52.31494 -51.007874z" fill-rule="evenodd"/><path stroke="#595959" stroke-width="3.0" stroke-linejoin="round" stroke-linecap="butt" d="m660.8714 165.99213l0 0c0 -28.170868 23.42218 -51.007874 52.31494 -51.007874l0 0c13.874817 0 27.181335 5.374031 36.99225 14.939865c9.810974 9.565826 15.322754 22.539871 15.322754 36.06801l0 0c0 28.170868 -23.422241 51.007874 -52.315002 51.007874l0 0c-28.892761 0 -52.31494 -22.837006 -52.31494 -51.007874z" fill-rule="evenodd"/><path fill="#000000" d="m709.68634 188.93213l0 -19.40625l-17.65625 -26.40625l7.375 0l9.03125 13.8125q2.5 3.875 4.65625 7.75q2.0625 -3.59375 5.0 -8.09375l8.875 -13.46875l7.0625 0l-18.28125 26.40625l0 19.40625l-6.0625 0z" fill-rule="nonzero"/><path fill="#da4859" d="m660.8714 343.99213l0 0c0 -28.170868 23.42218 -51.007874 52.31494 -51.007874l0 0c13.874817 0 27.181335 5.3740234 36.99225 14.93985c9.810974 9.565826 15.322754 22.539886 15.322754 36.068024l0 0c0 28.170868 -23.422241 51.007874 -52.315002 51.007874l0 0c-28.892761 0 -52.31494 -22.837006 -52.31494 -51.007874z" fill-rule="evenodd"/><path stroke="#595959" stroke-width="3.0" stroke-linejoin="round" stroke-linecap="butt" d="m660.8714 343.99213l0 0c0 -28.170868 23.42218 -51.007874 52.31494 -51.007874l0 0c13.874817 0 27.181335 5.3740234 36.99225 14.93985c9.810974 9.565826 15.322754 22.539886 15.322754 36.068024l0 0c0 28.170868 -23.422241 51.007874 -52.315002 51.007874l0 0c-28.892761 0 -52.31494 -22.837006 -52.31494 -51.007874z" fill-rule="evenodd"/><path fill="#da4859" d="m847.7454 63.97638l0 0c0 -28.170872 23.42218 -51.007874 52.31494 -51.007874l0 0c13.874817 0 27.181335 5.374029 36.99225 14.939861c9.810974 9.565832 15.322693 22.539885 15.322693 36.068016l0 0c0 28.170868 -23.42218 51.007874 -52.31494 51.007874l0 0c-28.892761 0 -52.31494 -22.837006 -52.31494 -51.007874z" fill-rule="evenodd"/><path stroke="#595959" stroke-width="3.0" stroke-linejoin="round" stroke-linecap="butt" d="m847.7454 63.97638l0 0c0 -28.170872 23.42218 -51.007874 52.31494 -51.007874l0 0c13.874817 0 27.181335 5.374029 36.99225 14.939861c9.810974 9.565832 15.322693 22.539885 15.322693 36.068016l0 0c0 28.170868 -23.42218 51.007874 -52.31494 51.007874l0 0c-28.892761 0 -52.31494 -22.837006 -52.31494 -51.007874z" fill-rule="evenodd"/><path fill="#000000" d="m878.2635 64.603874q0 -11.40625 6.125 -17.859375q6.125 -6.453125 15.8125 -6.453125q6.34375 0 11.4375 3.03125q5.09375 3.03125 7.765625 8.453125q2.671875 5.421875 2.671875 12.296875q0 6.96875 -2.8125 12.46875q-2.8125 5.5 -7.96875 8.328125q-5.15625 2.828125 -11.125 2.828125q-6.46875 0 -11.5625 -3.125q-5.09375 -3.125 -7.71875 -8.53125q-2.625 -5.40625 -2.625 -11.4375zm6.25 0.09375q0 8.28125 4.453125 13.046875q4.453125 4.765625 11.171875 4.765625q6.84375 0 11.265625 -4.8125q4.421875 -4.8125 4.421875 -13.65625q0 -5.59375 -1.890625 -9.765625q-1.890625 -4.171875 -5.53125 -6.46875q-3.640625 -2.296875 -8.171875 -2.296875q-6.4375 0 -11.078125 4.421875q-4.640625 4.421875 -4.640625 14.765625z" fill-rule="nonzero"/><path fill="#da4859" d="m847.7454 241.97638l0 0c0 -28.170868 23.42218 -51.007874 52.31494 -51.007874l0 0c13.874817 0 27.181335 5.3740234 36.99225 14.939865c9.810974 9.565826 15.322693 22.539871 15.322693 36.06801l0 0c0 28.170868 -23.42218 51.007874 -52.31494 51.007874l0 0c-28.892761 0 -52.31494 -22.837006 -52.31494 -51.007874z" fill-rule="evenodd"/><path stroke="#595959" stroke-width="3.0" stroke-linejoin="round" stroke-linecap="butt" d="m847.7454 241.97638l0 0c0 -28.170868 23.42218 -51.007874 52.31494 -51.007874l0 0c13.874817 0 27.181335 5.3740234 36.99225 14.939865c9.810974 9.565826 15.322693 22.539871 15.322693 36.06801l0 0c0 28.170868 -23.42218 51.007874 -52.31494 51.007874l0 0c-28.892761 0 -52.31494 -22.837006 -52.31494 -51.007874z" fill-rule="evenodd"/><path fill="#da4859" d="m847.7454 446.00787l0 0c0 -28.170868 23.42218 -51.007874 52.31494 -51.007874l0 0c13.874817 0 27.181335 5.3740234 36.99225 14.93985c9.810974 9.565857 15.322693 22.539886 15.322693 36.068024l0 0c0 28.170868 -23.42218 51.007874 -52.31494 51.007874l0 0c-28.892761 0 -52.31494 -22.837006 -52.31494 -51.007874z" fill-rule="evenodd"/><path stroke="#595959" stroke-width="3.0" stroke-linejoin="round" stroke-linecap="butt" d="m847.7454 446.00787l0 0c0 -28.170868 23.42218 -51.007874 52.31494 -51.007874l0 0c13.874817 0 27.181335 5.3740234 36.99225 14.93985c9.810974 9.565857 15.322693 22.539886 15.322693 36.068024l0 0c0 28.170868 -23.42218 51.007874 -52.31494 51.007874l0 0c-28.892761 0 -52.31494 -22.837006 -52.31494 -51.007874z" fill-rule="evenodd"/><path fill="#000000" fill-opacity="0.0" d="m275.1286 171.36745l152.56693 -102.01574" fill-rule="evenodd"/><path stroke="#595959" stroke-width="3.0" stroke-linejoin="round" stroke-linecap="butt" d="m275.1286 171.36745l152.56693 -102.01574" fill-rule="evenodd"/><path fill="#000000" fill-opacity="0.0" d="m275.1286 171.36745l152.56693 102.01576" fill-rule="evenodd"/><path stroke="#595959" stroke-width="3.0" stroke-linejoin="round" stroke-linecap="butt" d="m275.1286 171.36745l152.56693 102.01576" fill-rule="evenodd"/><path fill="#000000" fill-opacity="0.0" d="m275.1286 171.36745l152.56693 298.01575" fill-rule="evenodd"/><path stroke="#595959" stroke-width="3.0" stroke-linejoin="round" stroke-linecap="butt" d="m275.1286 171.36745l152.56693 298.01575" fill-rule="evenodd"/><path fill="#000000" fill-opacity="0.0" d="m275.1286 349.36746l152.56693 -280.0" fill-rule="evenodd"/><path stroke="#595959" stroke-width="3.0" stroke-linejoin="round" stroke-linecap="butt" d="m275.1286 349.36746l152.56693 -280.0" fill-rule="evenodd"/><path fill="#000000" fill-opacity="0.0" d="m275.1286 349.36746l152.56693 -75.968506" fill-rule="evenodd"/><path stroke="#595959" stroke-width="3.0" stroke-linejoin="round" stroke-linecap="butt" d="m275.1286 349.36746l152.56693 -75.968506" fill-rule="evenodd"/><path fill="#000000" fill-opacity="0.0" d="m275.1286 349.36746l152.56693 120.031494" fill-rule="evenodd"/><path stroke="#595959" stroke-width="3.0" stroke-linejoin="round" stroke-linecap="butt" d="m275.1286 349.36746l152.56693 120.031494" fill-rule="evenodd"/><path fill="#000000" fill-opacity="0.0" d="m532.31494 69.35171l128.56696 96.62992" fill-rule="evenodd"/><path stroke="#595959" stroke-width="3.0" stroke-linejoin="round" stroke-linecap="butt" d="m532.31494 69.35171l128.56696 96.62992" fill-rule="evenodd"/><path fill="#000000" fill-opacity="0.0" d="m532.31494 273.3832l128.56696 -107.40158" fill-rule="evenodd"/><path stroke="#595959" stroke-width="3.0" stroke-linejoin="round" stroke-linecap="butt" d="m532.31494 273.3832l128.56696 -107.40158" fill-rule="evenodd"/><path fill="#000000" fill-opacity="0.0" d="m660.8714 165.99213l-128.56696 303.40158" fill-rule="evenodd"/><path stroke="#595959" stroke-width="3.0" stroke-linejoin="round" stroke-linecap="butt" d="m660.8714 165.99213l-128.56696 303.40158" fill-rule="evenodd"/><path fill="#000000" fill-opacity="0.0" d="m532.31494 69.35171l128.56696 274.64566" fill-rule="evenodd"/><path stroke="#595959" stroke-width="3.0" stroke-linejoin="round" stroke-linecap="butt" d="m532.31494 69.35171l128.56696 274.64566" fill-rule="evenodd"/><path fill="#000000" fill-opacity="0.0" d="m532.31494 273.3832l128.56696 70.61417" fill-rule="evenodd"/><path stroke="#595959" stroke-width="3.0" stroke-linejoin="round" stroke-linecap="butt" d="m532.31494 273.3832l128.56696 70.61417" fill-rule="evenodd"/><path fill="#000000" fill-opacity="0.0" d="m532.31494 469.3832l128.56696 -125.38583" fill-rule="evenodd"/><path stroke="#595959" stroke-width="3.0" stroke-linejoin="round" stroke-linecap="butt" d="m532.31494 469.3832l128.56696 -125.38583" fill-rule="evenodd"/><path fill="#000000" fill-opacity="0.0" d="m765.50134 165.99213l82.236206 -102.01575" fill-rule="evenodd"/><path stroke="#595959" stroke-width="3.0" stroke-linejoin="round" stroke-linecap="butt" d="m765.50134 165.99213l82.236206 -102.01575" fill-rule="evenodd"/><path fill="#000000" fill-opacity="0.0" d="m765.50134 165.99213l82.236206 76.0" fill-rule="evenodd"/><path stroke="#595959" stroke-width="3.0" stroke-linejoin="round" stroke-linecap="butt" d="m765.50134 165.99213l82.236206 76.0" fill-rule="evenodd"/><path fill="#000000" fill-opacity="0.0" d="m765.50134 165.99213l82.236206 280.0315" fill-rule="evenodd"/><path stroke="#595959" stroke-width="3.0" stroke-linejoin="round" stroke-linecap="butt" d="m765.50134 165.99213l82.236206 280.0315" fill-rule="evenodd"/><path fill="#000000" fill-opacity="0.0" d="m765.50134 343.99213l82.236206 -280.0" fill-rule="evenodd"/><path stroke="#595959" stroke-width="3.0" stroke-linejoin="round" stroke-linecap="butt" d="m765.50134 343.99213l82.236206 -280.0" fill-rule="evenodd"/><path fill="#000000" fill-opacity="0.0" d="m765.50134 343.99213l82.236206 -102.01575" fill-rule="evenodd"/><path stroke="#595959" stroke-width="3.0" stroke-linejoin="round" stroke-linecap="butt" d="m765.50134 343.99213l82.236206 -102.01575" fill-rule="evenodd"/><path fill="#000000" fill-opacity="0.0" d="m765.50134 343.99213l82.236206 102.01575" fill-rule="evenodd"/><path stroke="#595959" stroke-width="3.0" stroke-linejoin="round" stroke-linecap="butt" d="m765.50134 343.99213l82.236206 102.01575" fill-rule="evenodd"/><path fill="#e58156" d="m17.868767 268.00787l0 0c0 -28.170868 23.422207 -51.007874 52.314957 -51.007874l0 0c13.874794 0 27.181313 5.3740234 36.992264 14.939865c9.810959 9.565826 15.3227005 22.539886 15.3227005 36.06801l0 0c0 28.170868 -23.422203 51.007874 -52.314964 51.007874l0 0c-28.89275 0 -52.314957 -22.837006 -52.314957 -51.007874z" fill-rule="evenodd"/><path stroke="#595959" stroke-width="3.0" stroke-linejoin="round" stroke-linecap="butt" d="m17.868767 268.00787l0 0c0 -28.170868 23.422207 -51.007874 52.314957 -51.007874l0 0c13.874794 0 27.181313 5.3740234 36.992264 14.939865c9.810959 9.565826 15.3227005 22.539886 15.3227005 36.06801l0 0c0 28.170868 -23.422203 51.007874 -52.314964 51.007874l0 0c-28.89275 0 -52.314957 -22.837006 -52.314957 -51.007874z" fill-rule="evenodd"/><path fill="#000000" d="m53.777477 290.94788l0 -45.8125l17.281254 0q4.5625 0 6.96875 0.4375q3.375 0.5625 5.65625 2.140625q2.28125 1.578125 3.671875 4.421875q1.390625 2.84375 1.390625 6.25q0 5.84375 -3.71875 9.890625q-3.71875 4.046875 -13.4375 4.046875l-11.750004 0l0 18.625l-6.0625 0zm6.0625 -24.03125l11.843754 0q5.875 0 8.34375 -2.1875q2.46875 -2.1875 2.46875 -6.15625q0 -2.875 -1.453125 -4.921875q-1.453125 -2.046875 -3.828125 -2.703125q-1.53125 -0.40625 -5.65625 -0.40625l-11.718754 0l0 16.375z" fill-rule="nonzero"/><path fill="#000000" fill-opacity="0.0" d="m185.82138 207.43547l-63.307083 60.56694" fill-rule="evenodd"/><path stroke="#595959" stroke-width="3.0" stroke-linejoin="round" stroke-linecap="butt" d="m185.82138 207.43547l-63.307083 60.56694" fill-rule="evenodd"/><path fill="#000000" fill-opacity="0.0" d="m122.49869 268.00787l63.307083 45.29135" fill-rule="evenodd"/><path stroke="#595959" stroke-width="3.0" stroke-linejoin="round" stroke-linecap="butt" d="m122.49869 268.00787l63.307083 45.29135" fill-rule="evenodd"/></g></svg>